<?xml version="1.0" encoding="utf-8"?>
<!-- Generator: Adobe Illustrator 16.2.1, SVG Export Plug-In . SVG Version: 6.00 Build 0)  -->
<!DOCTYPE svg PUBLIC "-//W3C//DTD SVG 1.1//EN" "http://www.w3.org/Graphics/SVG/1.1/DTD/svg11.dtd">
<svg version="1.1" id="Layer_1" xmlns="http://www.w3.org/2000/svg" xmlns:xlink="http://www.w3.org/1999/xlink" x="0px" y="0px"
	 width="12.596px" height="12.596px" viewBox="0 0 12.596 12.596" enable-background="new 0 0 12.596 12.596" xml:space="preserve">
<g>
	<path fill="#FFFFFF" d="M12.596,10.136c0,0.283-0.099,0.523-0.297,0.721l-1.442,1.442c-0.198,0.198-0.438,0.297-0.721,0.297
		s-0.523-0.099-0.721-0.297L6.298,9.182l-3.117,3.117c-0.198,0.198-0.438,0.297-0.721,0.297s-0.523-0.099-0.721-0.297l-1.442-1.442
		C0.099,10.66,0,10.419,0,10.136s0.099-0.523,0.297-0.721l3.117-3.117L0.297,3.181C0.099,2.983,0,2.743,0,2.46
		s0.099-0.523,0.297-0.721l1.442-1.442C1.937,0.099,2.177,0,2.459,0s0.523,0.099,0.721,0.297l3.117,3.117l3.117-3.117
		C9.613,0.099,9.853,0,10.136,0s0.523,0.099,0.721,0.297l1.442,1.442c0.198,0.198,0.297,0.438,0.297,0.721s-0.099,0.523-0.297,0.721
		L9.182,6.298l3.117,3.117C12.497,9.613,12.596,9.854,12.596,10.136z"/>
</g>
</svg>
