<?xml version="1.0" encoding="utf-8"?>
<!-- Generator: Adobe Illustrator 16.2.1, SVG Export Plug-In . SVG Version: 6.00 Build 0)  -->
<!DOCTYPE svg PUBLIC "-//W3C//DTD SVG 1.1//EN" "http://www.w3.org/Graphics/SVG/1.1/DTD/svg11.dtd">
<svg version="1.1" id="Layer_1" xmlns="http://www.w3.org/2000/svg" xmlns:xlink="http://www.w3.org/1999/xlink" x="0px" y="0px"
	 width="132px" height="132px" viewBox="0 0 132 132" enable-background="new 0 0 132 132" xml:space="preserve">
<path fill="#F9F9FA" d="M132,120c0,6.627-5.373,12-12,12H12c-6.627,0-12-5.373-12-12V12C0,5.373,5.373,0,12,0h108
	c6.627,0,12,5.373,12,12V120z"/>
<g>
	<polygon fill="#E16A4C" points="19.227,63.936 112.771,63.936 65.998,104.16 	"/>
	<polygon fill="#EE6846" points="112.771,63.936 19.227,63.936 35.417,37.235 96.58,37.235 	"/>
	<polygon fill="#D45836" points="92.083,63.936 39.915,63.936 35.416,37.235 96.58,37.235 	"/>
	<polygon fill="#D45836" points="19.227,63.936 112.771,63.936 65.998,104.16 	"/>
	<polygon fill="#EE6846" points="91.811,63.936 40.188,63.936 65.998,37.235 	"/>
	<polygon fill="#B94426" points="39.913,63.936 92.083,63.936 65.998,104.16 	"/>
</g>
</svg>
